<svg width="20" height="22" viewBox="0 0 20 22" fill="none"
  xmlns="http://www.w3.org/2000/svg">
  <path d="M20 10.5882C20 16.4373 15.5225 21.1765 10 21.1765C4.47754 21.1765 0 16.4373 0 10.5882C0 4.74263 4.47754 0 10 0C15.5225 0 20 4.74263 20 10.5882ZM10 12.723C8.97561 12.723 8.14516 13.6023 8.14516 14.6869C8.14516 15.7716 8.97561 16.6509 10 16.6509C11.0244 16.6509 11.8548 15.7716 11.8548 14.6869C11.8548 13.6023 11.0244 12.723 10 12.723ZM8.23899 5.6636L8.5381 11.47C8.5521 11.7418 8.76427 11.9545 9.02125 11.9545H10.9788C11.2357 11.9545 11.4479 11.7418 11.4619 11.47L11.761 5.6636C11.7761 5.37011 11.5554 5.12334 11.2779 5.12334H8.7221C8.44452 5.12334 8.22387 5.37011 8.23899 5.6636Z" fill="#EE4444"/>
</svg>
