<svg width="40" height="41" viewBox="0 0 40 41" fill="none"
  xmlns="http://www.w3.org/2000/svg">
  <path d="M24.1667 12.9999C24.3856 12.7811 24.6454 12.6074 24.9314 12.489C25.2173 12.3705 25.5238 12.3096 25.8334 12.3096C26.1429 12.3096 26.4494 12.3705 26.7353 12.489C27.0213 12.6074 27.2812 12.7811 27.5 12.9999C27.7189 13.2188 27.8925 13.4786 28.011 13.7646C28.1294 14.0506 28.1904 14.3571 28.1904 14.6666C28.1904 14.9761 28.1294 15.2826 28.011 15.5686C27.8925 15.8546 27.7189 16.1144 27.5 16.3333L16.25 27.5833L11.6667 28.8333L12.9167 24.2499L24.1667 12.9999Z" stroke="#667085" stroke-width="1.66667" stroke-linecap="round" stroke-linejoin="round"/>
</svg>
