<svg width="65" height="31" viewBox="0 0 65 31" fill="none" xmlns="http://www.w3.org/2000/svg">
<rect x="0.5" y="0.5" width="64" height="30" rx="7.5" fill="#004082"/>
<rect x="0.5" y="0.5" width="64" height="30" rx="7.5" stroke="#004082"/>
<rect x="29" width="36" height="31" rx="8" fill="white"/>
<path d="M9.52344 8.625V20H8.03906V8.625H9.52344ZM13.1797 8.625V9.85938H4.39062V8.625H13.1797ZM22.7969 13.5156V14.7422H16.6406V13.5156H22.7969ZM16.875 8.625V20H15.3672V8.625H16.875ZM24.1094 8.625V20H22.6094V8.625H24.1094Z" fill="white"/>
<path d="M32.9766 8.625V22.1094H31.8125V8.625H32.9766ZM47.8594 18.7734V20H41.8359V18.7734H47.8594ZM42.1406 8.625V20H40.6328V8.625H42.1406ZM47.0625 13.5156V14.7422H41.8359V13.5156H47.0625ZM47.7812 8.625V9.85938H41.8359V8.625H47.7812ZM58.9766 8.625V20H57.4609L51.7344 11.2266V20H50.2266V8.625H51.7344L57.4844 17.4219V8.625H58.9766Z" fill="black"/>
</svg>
