<svg width="37" height="37" viewBox="0 0 37 37" fill="none"
  xmlns="http://www.w3.org/2000/svg">
  <path d="M14.0831 32.0252V27.3113C14.0831 26.1079 15.0658 25.1324 16.2779 25.1324H20.7089C21.291 25.1324 21.8493 25.362 22.2609 25.7706C22.6725 26.1792 22.9037 26.7334 22.9037 27.3113V32.0252C22.9001 32.5255 23.0977 33.0066 23.4527 33.3616C23.8078 33.7167 24.2909 33.9163 24.7949 33.9163H27.8179C29.2298 33.92 30.5851 33.3657 31.5847 32.3759C32.5844 31.3861 33.1462 30.0421 33.1462 28.6405V15.2111C33.1461 14.0789 32.6406 13.0049 31.7658 12.2785L21.4819 4.12497C19.6931 2.69537 17.13 2.74153 15.3945 4.2346L5.3453 12.2785C4.42913 12.9835 3.88155 14.0607 3.85449 15.2111V28.6268C3.85449 31.5481 6.24004 33.9163 9.18276 33.9163H12.1368C13.1835 33.9164 14.0341 33.078 14.0417 32.0389L14.0831 32.0252Z" fill="black"/>
</svg>
