<svg width="37" height="37" viewBox="0 0 37 37" fill="none"
  xmlns="http://www.w3.org/2000/svg">
  <path fill-rule="evenodd" clip-rule="evenodd" d="M18.4999 23.1247C15.95 23.1247 13.8749 21.0496 13.8749 18.4997C13.8749 15.9498 15.95 13.8747 18.4999 13.8747C21.0498 13.8747 23.1249 15.9498 23.1249 18.4997C23.1249 21.0496 21.0498 23.1247 18.4999 23.1247ZM30.084 19.9088C29.5799 19.6143 29.2777 19.0886 29.2777 18.4997C29.2777 17.9108 29.5799 17.385 30.0855 17.0921C32.2716 15.8203 33.0224 12.9959 31.7613 10.7929C31.1462 9.72297 30.1549 8.9583 28.9678 8.63917C27.7869 8.32622 26.5536 8.48963 25.496 9.10476C24.9965 9.39767 24.3999 9.39768 23.8973 9.1063C23.3885 8.81492 23.0848 8.28613 23.0848 7.69567C23.0848 5.15347 21.0282 3.08301 18.4999 3.08301C15.97 3.08301 13.9134 5.15347 13.9134 7.69567C13.9134 8.28767 13.6097 8.81492 13.101 9.10784C12.6015 9.39459 12.0049 9.39767 11.5054 9.10476C10.4447 8.48963 9.2129 8.32313 8.0289 8.64072C6.84182 8.95984 5.85207 9.72451 5.23848 10.7944C3.9774 12.9975 4.72973 15.8218 6.91582 17.0906C7.41994 17.3835 7.72057 17.9108 7.72057 18.4997C7.72057 19.0886 7.41994 19.6158 6.91582 19.9072C4.72973 21.1791 3.9774 24.005 5.23848 26.2065C5.85207 27.2748 6.84182 28.0395 8.02736 28.3586C9.20982 28.6747 10.4447 28.5113 11.5054 27.8961C12.0033 27.6032 12.5999 27.6032 13.101 27.8915C13.6097 28.1844 13.9134 28.7117 13.9134 29.3037C13.9134 31.8459 15.97 33.9163 18.4999 33.9163C21.0282 33.9163 23.0848 31.8459 23.0848 29.3037C23.0848 28.7132 23.3885 28.1844 23.8973 27.8931C24.3983 27.6032 24.9949 27.6032 25.496 27.8961C26.5551 28.5113 27.7884 28.6716 28.9678 28.3602C30.1549 28.041 31.1462 27.2764 31.7613 26.2065C33.0224 24.005 32.2716 21.1806 30.084 19.9088Z" fill="black"/>
</svg>
