<svg width="40" height="41" viewBox="0 0 40 41" fill="none"
  xmlns="http://www.w3.org/2000/svg">
  <path d="M12.5 15.5003H14.1667M14.1667 15.5003H27.5M14.1667 15.5003V27.167C14.1667 27.609 14.3423 28.0329 14.6548 28.3455C14.9674 28.6581 15.3913 28.8337 15.8333 28.8337H24.1667C24.6087 28.8337 25.0326 28.6581 25.3452 28.3455C25.6577 28.0329 25.8333 27.609 25.8333 27.167V15.5003H14.1667ZM16.6667 15.5003V13.8337C16.6667 13.3916 16.8423 12.9677 17.1548 12.6551C17.4674 12.3426 17.8913 12.167 18.3333 12.167H21.6667C22.1087 12.167 22.5326 12.3426 22.8452 12.6551C23.1577 12.9677 23.3333 13.3916 23.3333 13.8337V15.5003M18.3333 19.667V24.667M21.6667 19.667V24.667" stroke="#667085" stroke-width="1.66667" stroke-linecap="round" stroke-linejoin="round"/>
</svg>
