<svg width="21" height="19" viewBox="0 0 21 19" fill="none"
  xmlns="http://www.w3.org/2000/svg">
  <path d="M2.20476 19H18.7952C20.4917 19 21.5493 17.1344 20.7011 15.6485L12.4058 1.11436C11.5576 -0.371454 9.44244 -0.371454 8.59419 1.11436L0.298949 15.6485C-0.549302 17.1344 0.508258 19 2.20476 19ZM10.5 11.1799C9.89411 11.1799 9.39837 10.6772 9.39837 10.0628V7.82846C9.39837 7.21402 9.89411 6.7113 10.5 6.7113C11.1059 6.7113 11.6016 7.21402 11.6016 7.82846V10.0628C11.6016 10.6772 11.1059 11.1799 10.5 11.1799ZM11.6016 15.6485H9.39837V13.4142H11.6016V15.6485Z" fill="#EE7700"/>
</svg>
